<svg
    viewBox="0 0 350.00000000000006 227.50352710604383"
    preserveAspectRatio="xMidYMid meet"
    class="css-8aabad"
    id="dbccgbdg"
>
    <defs id="SvgjsDefs1001"></defs>
    <g
        id="SvgjsG1007"
        featurekey="AgVF85-0"
        transform="matrix(1.557591591928061,0,0,1.557591591928061,96.45141534378061,-13.286902027491585)"
        fill="#111"
    >
        <path
            xmlns="http://www.w3.org/2000/svg"
            d="M64.761261,14.0909958c0.1954193-0.0250063,0.4097214-0.0297699,0.6371002-0.01478  c0.2266922,0.0149441,0.4666824,0.0495443,0.7143097,0.1034002c0.2472458,0.053772,0.5024719,0.1268206,0.7601395,0.2188482  c0.2576828,0.0920305,0.5182266,0.2031946,0.7761688,0.3333092c0.3892136,0.1963358,0.7366486,0.4178333,1.0323715,0.6509924  c0.2974701,0.2345362,0.5434265,0.4815159,0.7269135,0.7269697c0.1849976,0.2474728,0.3068314,0.4938469,0.3536606,0.7244511  c0.047287,0.2328243,0.0181503,0.4497795-0.0998383,0.6353855c-0.0399933,0.0626373-0.0888519,0.1196995-0.1458435,0.1711807  c-0.0571671,0.0516415-0.1224976,0.0976543-0.1952362,0.1380329c-0.0729446,0.0404968-0.1533127,0.0753136-0.2403336,0.1044502  c-0.0872498,0.029213-0.18116,0.0527096-0.2809372,0.0704899c-0.1980743,0.0352955-0.419075,0.0480461-0.656723,0.0383396  c-0.2384033-0.009737-0.4932175-0.0420628-0.7579498-0.0967884c-0.2651749-0.0548172-0.5398712-0.132021-0.8174667-0.2312984  c-0.2775726-0.0992737-0.5575409-0.2204399-0.8331833-0.3630466c-0.4142838-0.2140923-0.7782669-0.4555397-1.0810471-0.7080002  c-0.3008957-0.2508907-0.5404968-0.5119534-0.7090874-0.7674513c-0.1671638-0.253335-0.2642174-0.5007563-0.2822914-0.7273264  c-0.0178986-0.2243891,0.0416794-0.4281693,0.1871643-0.5972013c0.0486221-0.0562887,0.1052628-0.1069431,0.1690979-0.1520443  c0.0636444-0.0449648,0.1344681-0.0844231,0.2116623-0.118453c0.0769882-0.0339346,0.1603317-0.0624809,0.2492599-0.0857124  C64.5678787,14.1215687,64.6621628,14.1036758,64.761261,14.0909958z"
        ></path>
        <path
            xmlns="http://www.w3.org/2000/svg"
            d="M76.7634277,22.5126152c0.0698776-0.0177231,0.1449661-0.0307636,0.2249374-0.0388966  c0.0798569-0.0081196,0.1646042-0.0113506,0.2539215-0.0094662c0.0892181,0.0018826,0.1830215,0.0088673,0.2811127,0.0211849  c0.0979996,0.0123043,0.2003098,0.0299358,0.306633,0.0531254c0.3136139,0.0682602,0.6331787,0.1785221,0.9431534,0.3196678  c0.3103867,0.1413345,0.6120529,0.3140392,0.8890915,0.5071239c0.2781525,0.1938534,0.5321503,0.4087238,0.7455597,0.633503  c0.2147369,0.2261791,0.3887939,0.4628468,0.5050125,0.698595c0.077774,0.1570683,0.125206,0.3039989,0.1443176,0.4387722  c0.0192108,0.135479,0.0097885,0.2586422-0.026207,0.3674011c-0.036171,0.1092949-0.0991592,0.2039967-0.1868362,0.2819633  c-0.0880585,0.0783081-0.2009659,0.1396828-0.3364716,0.1819649c-0.0696259,0.0217228-0.1451874,0.0384007-0.2263794,0.0497398  c-0.0813141,0.0113583-0.1682587,0.0173588-0.2604904,0.0177174c-0.0923615,0.0003567-0.1900024-0.0049438-0.2925949-0.0161877  c-0.1026993-0.0112553-0.2103195-0.0284615-0.3225174-0.0518951c-0.3316116-0.069252-0.6709366-0.1862049-0.9998703-0.3381348  c-0.328476-0.1517162-0.6455841-0.3378468-0.9336472-0.5455189c-0.28685-0.2068024-0.5441742-0.4344444-0.7549286-0.670208  c-0.2094116-0.234251-0.3724289-0.476059-0.4727859-0.7130737c-0.0656815-0.1554241-0.1001892-0.2990608-0.1063156-0.4291706  c-0.0060959-0.1294327,0.0159073-0.245512,0.0632706-0.34655c0.0471344-0.1005535,0.1194153-0.1862583,0.2142105-0.2554684  C76.5099945,22.5998859,76.6267776,22.5472775,76.7634277,22.5126152z"
        ></path>
        <path
            xmlns="http://www.w3.org/2000/svg"
            d="M85.0995331,33.0917969c0.0924225-0.0399933,0.192749-0.0725937,0.3006592-0.0974083  c0.107666-0.0247574,0.2229233-0.0417747,0.3454666-0.0506516c0.1223221-0.0088615,0.2519455-0.0096169,0.3885956-0.0018654  c0.1364517,0.00774,0.2799683,0.0239677,0.4302826,0.0490952c0.4720306,0.0788689,0.9680023,0.2383232,1.4623184,0.4595947  c0.495163,0.2216454,0.9909134,0.5063286,1.4610214,0.8358231c0.4728928,0.3314514,0.9216919,0.7095451,1.3189087,1.1159439  c0.4010315,0.4102936,0.7508087,0.8507957,1.0201645,1.3025131c0.18573,0.3114777,0.3213959,0.6083794,0.408905,0.8857117  c0.0882721,0.2797203,0.127533,0.5394592,0.1197357,0.7739258c-0.0078583,0.2363892-0.0635452,0.4469337-0.1649551,0.6261292  c-0.1021576,0.1805077-0.2506027,0.3290062-0.4429703,0.4398499c-0.0899963,0.0518532-0.1895599,0.0954361-0.2984238,0.1301804  c-0.1091309,0.0348282-0.2275696,0.0607605-0.3550339,0.0772285c-0.1277237,0.0165024-0.2644424,0.0234985-0.4098663,0.0204239  c-0.1456528-0.0030746-0.2999649-0.0162506-0.4626007-0.0400696c-0.5130463-0.075161-1.0583496-0.2486992-1.6032333-0.4976463  c-0.5438766-0.2484856-1.0846176-0.570858-1.5903778-0.9434547c-0.5025177-0.3702049-0.9684219-0.7884598-1.367485-1.2313652  c-0.39505-0.4384499-0.7233047-0.8996201-0.9565582-1.3611031c-0.157402-0.3114357-0.2612686-0.6027184-0.3156281-0.8695641  c-0.053894-0.2645721-0.0591431-0.5052299-0.0196533-0.717926c0.0391769-0.2110138,0.1224136-0.3946724,0.2460251-0.547081  C84.7375793,33.2987251,84.9002838,33.1780205,85.0995331,33.0917969z"
        ></path>
        <path
            xmlns="http://www.w3.org/2000/svg"
            d="M52.3659592,9.6736546c0.0833969-0.0058393,0.1702538-0.0080986,0.2601128-0.0066566  c0.0897408,0.001441,0.1824951,0.0065727,0.277832,0.0155201c0.0952301,0.0089378,0.1930542,0.0216846,0.293045,0.0383673  c0.0999069,0.0166674,0.2019997,0.0372696,0.3058586,0.0619354c0.3057556,0.0727196,0.5984688,0.1740456,0.8665314,0.2951946  c0.268383,0.1212969,0.5127602,0.2627831,0.7211113,0.4157267c0.2091103,0.1535006,0.3823929,0.318882,0.5073318,0.4872999  c0.1256523,0.1693735,0.2026329,0.3421249,0.2178764,0.5091705c0.0099945,0.1109505-0.0079269,0.2125006-0.0506172,0.3034897  c-0.0428963,0.0914211-0.1107903,0.1721621-0.2004585,0.2410231c-0.0900726,0.0691681-0.2020874,0.1263218-0.3327179,0.1702356  c-0.1311531,0.0440884-0.2809982,0.0748053-0.4461021,0.0909204c-0.0848541,0.0082827-0.1737099,0.0127068-0.2660904,0.0131083  c-0.092514,0.0004034-0.1885414-0.0032282-0.2875977-0.011054c-0.0991783-0.0078363-0.2013664-0.0198736-0.3060799-0.036273  c-0.104805-0.0164137-0.2121086-0.0371904-0.3214111-0.0624838c-0.3232727-0.0747175-0.6328278-0.1816273-0.9151611-0.3107643  c-0.2819748-0.1289721-0.5360222-0.2797585-0.7491188-0.4423351c-0.2122841-0.1619596-0.3834381-0.3352499-0.5010109-0.5099916  c-0.1168861-0.1737242-0.1805992-0.3485708-0.1792679-0.5149422c0.0012627-0.1091728,0.0304642-0.2078466,0.0838661-0.2950964  c0.0531502-0.0868378,0.1302795-0.1623793,0.2277336-0.2257309c0.097023-0.0630741,0.2142334-0.1140919,0.3480721-0.1521749  C52.0530167,9.7102079,52.2029228,9.6850843,52.3659592,9.6736546z"
        ></path>
        <path
            xmlns="http://www.w3.org/2000/svg"
            d="M38.2941284,8.5381756c0.4428024-0.0230265,0.8984795,0.0058737,1.3443985,0.0775547  c0.4443054,0.0714226,0.8806381,0.1855927,1.2864609,0.3339567c0.4059067,0.1483946,0.7828445,0.331563,1.1079025,0.5413342  c0.3263664,0.2106152,0.6016846,0.4488525,0.8021698,0.706749c0.2018929,0.2602844,0.309063,0.516715,0.3290672,0.7580709  c0.0202026,0.2437162-0.0484467,0.4723625-0.1985245,0.6738968c-0.1516495,0.2036428-0.3864479,0.3796091-0.6964645,0.5150957  c-0.3130951,0.1368313-0.7025185,0.2322073-1.1592216,0.2728443c-0.4614716,0.0401707-0.9453583,0.0208702-1.424511-0.0488615  c-0.4810295-0.0700045-0.9552994-0.1905479-1.3954201-0.3518562c-0.4400215-0.161273-0.8440895-0.362628-1.1852951-0.5938082  c-0.3397293-0.2301817-0.615757-0.4889994-0.8022995-0.7659931c-0.1849136-0.2752991-0.2635002-0.5416727-0.2483978-0.7871933  c0.0149536-0.2430725,0.1217232-0.4654474,0.307785-0.6560659c0.1841354-0.1886473,0.445961-0.3462276,0.7737083-0.4623413  C37.4601173,8.636549,37.849865,8.5620632,38.2941284,8.5381756z"
        ></path>
        <path
            xmlns="http://www.w3.org/2000/svg"
            d="M59.6179504,17.8341503c0.350174-0.0560379,0.7287827-0.0756493,1.1258049-0.0596008  c0.3950195,0.0159664,0.8091927,0.0672684,1.2329292,0.1533985c0.4226341,0.085907,0.8558655,0.2066822,1.2904167,0.3621216  c0.4345894,0.1554508,0.8717232,0.3460102,1.3023109,0.5718307c0.6504593,0.3413601,1.2275543,0.732708,1.7160645,1.1503639  c0.4934158,0.4218521,0.8987808,0.8725262,1.197998,1.3270359c0.3034363,0.4609165,0.4986801,0.9272556,0.5651093,1.3719063  c0.0675354,0.4520645,0.0020294,0.8824577-0.219017,1.2614574c-0.0750656,0.1285648-0.1656799,0.2470741-0.2705612,0.3554001  c-0.1054535,0.1089191-0.225296,0.2074966-0.3581772,0.2956047c-0.1335602,0.0885544-0.2802353,0.1664925-0.4386597,0.2336979  c-0.1591492,0.0675125-0.3300705,0.1241589-0.5113449,0.1698322c-0.3608856,0.0909309-0.7621765,0.1382294-1.192337,0.1412487  c-0.4325943,0.0030365-0.8932877-0.0387211-1.3698997-0.1255951c-0.4780273-0.0871296-0.9706879-0.219389-1.4653549-0.3966694  c-0.4946251-0.1772652-0.9896736-0.3989773-1.4722862-0.6645164c-0.7234879-0.3975792-1.3466263-0.8537178-1.8519363-1.3352242  c-0.4997559-0.4762135-0.8817978-0.9749088-1.1323051-1.4649258c-0.2467957-0.4827633-0.3651924-0.9556828-0.3437424-1.3903179  c0.0210876-0.4273911,0.1773758-0.817297,0.479351-1.1438789c0.1002007-0.1085587,0.2133141-0.2067299,0.3378677-0.2946777  c0.123909-0.0874882,0.2591934-0.1648979,0.4044304-0.232378c0.1445541-0.0671616,0.2990303-0.1245193,0.4620476-0.1722088  C59.2689896,17.9005661,59.4398689,17.8626385,59.6179504,17.8341503z"
        ></path>
        <path
            xmlns="http://www.w3.org/2000/svg"
            d="M42.5893631,14.583106c0.7025986-0.0753918,1.430809-0.055294,2.1485367,0.0445747  c0.7134666,0.0992765,1.4211044,0.2780085,2.0871773,0.522253c0.6663094,0.2443285,1.2951965,0.5557442,1.8501129,0.9215212  c0.5585899,0.3682003,1.045742,0.7938061,1.4227867,1.2649117c0.3821526,0.478096,0.6166153,0.9599934,0.7113266,1.4238434  c0.0962601,0.4714336,0.0483704,0.9252472-0.1365662,1.3369846c-0.1882019,0.4190216-0.5183754,0.7945347-0.9824982,1.0994415  c-0.4719772,0.3100681-1.0815239,0.5464954-1.8178101,0.680233c-0.7492561,0.1348591-1.5520821,0.1509018-2.3602867,0.0627785  c-0.8136864-0.0887203-1.6270103-0.2823868-2.3907166-0.5638008c-0.763401-0.2813015-1.4717712-0.6482697-2.0770912-1.081892  c-0.6008072-0.4303894-1.0959091-0.9234428-1.4406357-1.4593182c-0.3398476-0.5291786-0.4994507-1.0476704-0.5000038-1.5304203  c-0.0005417-0.474596,0.1526451-0.9138508,0.4386101-1.2956219c0.2810097-0.3751526,0.690361-0.6949644,1.2091751-0.9394779  C41.2621078,14.8284607,41.8799896,14.6601696,42.5893631,14.583106z"
        ></path>
        <path
            xmlns="http://www.w3.org/2000/svg"
            d="M25.10182,12.2365608c0.4263172-0.0319986,0.8526573-0.0158663,1.2595615,0.0404453  c0.4056282,0.0561352,0.7932987,0.1523857,1.1435146,0.2812757c0.3502808,0.1289129,0.6642551,0.2909031,0.9220333,0.4788094  c0.2586784,0.1885624,0.4616261,0.4038448,0.5881844,0.6388721c0.1274586,0.2366838,0.1653481,0.4716949,0.1239491,0.6944084  c-0.041748,0.2245913-0.1641731,0.4369144-0.3569298,0.6256847c-0.1944942,0.1904726-0.4605942,0.3569679-0.7873669,0.4875927  c-0.3295555,0.1317368-0.7204609,0.2268476-1.1607628,0.2730398c-0.44487,0.0459452-0.8962078,0.0380201-1.3307209-0.0160484  c-0.4359741-0.0542488-0.8534641-0.1547594-1.2291336-0.293231c-0.375597-0.1384439-0.7080593-0.3143454-0.9745255-0.5190144  c-0.2654762-0.2039089-0.4645195-0.4356613-0.575222-0.6863804c-0.1104679-0.2487335-0.1232262-0.4920702-0.0526428-0.7186966  c0.0699787-0.2246847,0.2218151-0.4327364,0.4413853-0.6135321c0.2176132-0.179184,0.5017929-0.3316221,0.8391533-0.4472427  C24.2868843,12.3478737,24.6741791,12.2692852,25.10182,12.2365608z"
        ></path>
        <path
            xmlns="http://www.w3.org/2000/svg"
            d="M70.2394943,29.8400097c0.1745148-0.0558147,0.35923-0.1004353,0.553421-0.1333332  c0.1935043-0.0327835,0.3965302-0.0539436,0.6084137-0.0629425c0.2112579-0.0089722,0.4314423-0.0058575,0.6599274,0.009901  c0.2279663,0.0157242,0.4643402,0.0440445,0.7085342,0.0855446c0.7660522,0.1302166,1.5410461,0.3788719,2.2904892,0.7180996  c0.7514191,0.3401203,1.4824677,0.7737007,2.1566925,1.2740879c0.6804657,0.5050182,1.3072281,1.0811901,1.8407516,1.7016315  c0.5415573,0.6297913,0.9899063,1.3085213,1.301384,2.0078735c0.216095,0.485199,0.3526459,0.9495888,0.4139252,1.3852081  c0.0621262,0.4416161,0.0468674,0.8535233-0.0413055,1.2270317c-0.089325,0.3784294-0.2534103,0.7170601-0.4872818,1.0065994  c-0.2366486,0.2929802-0.544342,0.5351906-0.9173203,0.7169647c-0.1749573,0.0852661-0.3641586,0.1571503-0.5669327,0.2146759  c-0.2035828,0.0577507-0.420723,0.1009903-0.6507034,0.128746c-0.230751,0.0278473-0.4742661,0.0400848-0.7297592,0.035759  c-0.2561646-0.0043373-0.5241776-0.025322-0.8031998-0.0638733c-0.8814926-0.1218452-1.7841415-0.4065781-2.6563644-0.8156891  c-0.8695602-0.4078636-1.7017822-0.9360237-2.4480362-1.5441132c-0.7384415-0.6017265-1.3877487-1.2776909-1.9039536-1.9884148  c-0.5077972-0.6991577-0.8841629-1.4283295-1.0902481-2.1508026c-0.1381683-0.4843788-0.1906357-0.9341011-0.1670532-1.3430405  c0.023262-0.4034081,0.1205368-0.7674141,0.2827377-1.0864258c0.1601715-0.3150349,0.3838654-0.5865936,0.6626892-0.8093987  C69.5321121,30.1337109,69.8623657,29.9606209,70.2394943,29.8400097z"
        ></path>
        <path
            xmlns="http://www.w3.org/2000/svg"
            d="M50.4649124,24.5203876c0.6613121-0.1385441,1.3601761-0.2076607,2.0791397-0.20858  c0.7127419-0.0009117,1.4480972,0.0651932,2.189743,0.1979198c0.7383423,0.1321373,1.4861488,0.330883,2.2278862,0.5968094  c0.7418327,0.2659607,1.4811592,0.600399,2.2028694,1.005043c1.093586,0.6131592,2.0525208,1.3349628,2.8554459,2.1226177  c0.8168755,0.8013401,1.4790001,1.6774597,1.9567146,2.5819035c0.4895439,0.9268322,0.7883034,1.8888855,0.8589745,2.8329391  c0.0727844,0.9722252-0.0961151,1.9286118-0.5501175,2.8065872c-0.1556854,0.3010635-0.339901,0.5832062-0.5503922,0.8457298  c-0.2126122,0.2651749-0.4518738,0.5101433-0.7153702,0.7341995c-0.2659607,0.2261505-0.5563927,0.4308128-0.8687134,0.6132927  c-0.3149834,0.1840324-0.6519432,0.3453293-1.0081329,0.4832153c-0.7126503,0.2758789-1.5000916,0.4573402-2.3392296,0.5397377  c-0.8481178,0.0832748-1.7450142,0.0649605-2.6653214-0.0583878c-0.9254608-0.1240387-1.8695526-0.353611-2.8053017-0.6903763  c-0.9355888-0.3367043-1.8571739-0.7785263-2.7372055-1.3249168c-1.3135643-0.816124-2.39645-1.7790108-3.2244415-2.8097038  c-0.8110657-1.0096207-1.3703156-2.0753365-1.6658554-3.1265182c-0.2875595-1.0227852-0.3239975-2.0266647-0.1035957-2.9518414  c0.2138329-0.8975964,0.6691017-1.7197094,1.3708649-2.4161587c0.2309494-0.2292042,0.4814453-0.4376869,0.7487183-0.6258202  c0.2648392-0.1864204,0.5463753-0.353014,0.8419647-0.5001087c0.2931633-0.1458836,0.6004105-0.2727146,0.9192276-0.3807697  C49.7992706,24.6799355,50.127449,24.591074,50.4649124,24.5203876z"
        ></path>
        <path
            xmlns="http://www.w3.org/2000/svg"
            d="M30.290163,22.9055614c0.2875233-0.0468655,0.5804577-0.0821609,0.8774128-0.105402  c0.2957783-0.0231476,0.5957317-0.0343533,0.8985252-0.0331154c0.301796,0.0012321,0.6066208,0.0148277,0.9131889,0.0413017  c0.3057823,0.0264072,0.6135254,0.0656509,0.9219894,0.1182747c0.9672012,0.1649818,1.8558197,0.4471245,2.6397209,0.817543  c0.7862129,0.3715115,1.4733238,0.8347702,2.0311356,1.3621387c0.5636139,0.532856,0.999115,1.1348515,1.2717018,1.7779865  c0.2772141,0.6540546,0.3875885,1.3545818,0.2910423,2.0718384c-0.0668907,0.4982777-0.2293854,0.9729958-0.475708,1.4162464  c-0.2501602,0.4501648-0.5866928,0.8677101-0.9968987,1.2438946c-0.4163437,0.381815-0.9081154,0.7205887-1.4612961,1.0068893  c-0.5606689,0.2901726-1.1833267,0.5258713-1.8523598,0.6972542c-0.3141441,0.0804749-0.6382408,0.1466751-0.9705658,0.1976051  c-0.3338432,0.0511627-0.6757622,0.0868797-1.0239525,0.106163c-0.3495255,0.0193558-0.7050972,0.0221329-1.0648346,0.0073776  c-0.3608227-0.0148048-0.7255192-0.0472374-1.0921421-0.0982246c-1.1588173-0.1611214-2.2193794-0.490921-3.1376324-0.9474182  c-0.9150429-0.4549065-1.6802349-1.0313892-2.2580128-1.6854286c-0.5708809-0.6462326-0.9544296-1.3632526-1.1199226-2.1083698  c-0.1624279-0.7313156-0.1138401-1.4854145,0.1707668-2.2231312c0.1908512-0.4935169,0.4747829-0.9473724,0.8330956-1.3560181  c0.3528233-0.4023876,0.7780571-0.7612705,1.2583752-1.0716572c0.4735661-0.3060207,1.0013714-0.5653477,1.5675201-0.7732925  C29.0705433,23.162611,29.6683464,23.0069141,30.290163,22.9055614z"
        ></path>
        <path
            xmlns="http://www.w3.org/2000/svg"
            d="M88.504631,48.8169708c0.2751465-0.1891937,0.6179428-0.2788124,1.0027008-0.2798462  c0.3832474-0.0010262,0.8097229,0.0858345,1.2545242,0.2508354c0.4449005,0.1650429,0.9099731,0.4089394,1.3705139,0.7229042  c0.4625549,0.3153343,0.9224625,0.7026596,1.3546448,1.1539497c0.4366455,0.4559517,0.8046646,0.9352188,1.0963287,1.412941  c0.2947617,0.4827919,0.5119476,0.9646568,0.6427002,1.4189835c0.1322479,0.4594955,0.1760864,0.8908424,0.1220932,1.2655907  c-0.0545807,0.3787956-0.2090378,0.6992607-0.4725876,0.9314766c-0.2674713,0.2331963-0.6190948,0.3537636-1.0259628,0.370842  c-0.4086075,0.0171509-0.8710861-0.0701523-1.3574142-0.2512398c-0.4862137-0.1810493-0.9940796-0.4550209-1.4933167-0.8100166  c-0.4968948-0.3533249-0.9830399-0.7853508-1.4287567-1.2833176c-0.442009-0.4945488-0.8009644-1.005497-1.0718079-1.5046425  c-0.2679062-0.4937363-0.4492874-0.9753609-0.5401001-1.4186058c-0.0897903-0.4382668-0.0910492-0.8391037,0.0000305-1.1779442  C88.0483627,49.283535,88.2290726,49.0084114,88.504631,48.8169708z"
        ></path>
        <path
            xmlns="http://www.w3.org/2000/svg"
            d="M63.8619843,43.4907837c0.8020096-0.3576698,1.6868439-0.5129547,2.6032639-0.491539  c0.9088135,0.0212364,1.856781,0.2164307,2.7946625,0.5652046c0.9383316,0.3489418,1.874794,0.8546715,2.759819,1.500843  c0.8932648,0.6521912,1.7420654,1.4532623,2.4942322,2.3903809c0.7674408,0.955307,1.3668594,1.96772,1.7922134,2.9872932  c0.4352875,1.0433846,0.6896973,2.0976753,0.7531433,3.1050339c0.0650711,1.0331116-0.0706863,2.0173225-0.4186859,2.8855286  c-0.3566132,0.8897018-0.9351196,1.6551437-1.7441635,2.2208939c-0.8300476,0.575737-1.8128662,0.8840141-2.8772278,0.9415245  c-1.0750961,0.0580902-2.2220154-0.1402664-3.3647919-0.5697861c-1.1421127-0.4292679-2.267952-1.0848656-3.3021698-1.9343567  c-1.0228043-0.8401108-1.9454803-1.8612328-2.6984253-3.0266113c-0.7390213-1.1425552-1.2399712-2.3085098-1.5173187-3.43153  c-0.2705612-1.0955429-0.3277092-2.1477585-0.1876259-3.1003685c0.1366081-0.9289474,0.4608803-1.7639351,0.9588356-2.4564934  C62.3945618,44.3997383,63.0490875,43.8563957,63.8619843,43.4907837z"
        ></path>
        <path
            xmlns="http://www.w3.org/2000/svg"
            d="M39.9822502,39.7013092c0.6657867-0.2140617,1.3574562-0.3515663,2.0580864-0.4123611  c0.695076-0.0603142,1.4015312-0.0453529,2.1033325,0.0458298c0.6989365,0.0908089,1.3960724,0.2575836,2.0759354,0.502224  c0.6799469,0.2446709,1.3456192,0.5683022,1.9817581,0.9739952c0.9630547,0.6152267,1.7746849,1.3656693,2.4212189,2.2033463  c0.6568184,0.8510017,1.1481819,1.7984467,1.4535637,2.7910614c0.3122826,1.0150414,0.4317398,2.0827332,0.3321609,3.1452293  c-0.1022797,1.09132-0.4359512,2.1804008-1.031002,3.2001495c-0.2037354,0.3487167-0.4315376,0.678093-0.6810722,0.9872131  c-0.2518082,0.3119431-0.5255737,0.6030579-0.818821,0.8724136c-0.295723,0.2716331-0.6110306,0.5209389-0.9433098,0.7469902  c-0.3348312,0.2277832-0.6866074,0.4317627-1.0525742,0.6110229c-0.7315941,0.3583488-1.5179138,0.6171341-2.3361893,0.769783  c-0.8261452,0.1541214-1.681324,0.199398-2.541008,0.1303444c-0.8640137-0.0694008-1.728344-0.2539444-2.5673714-0.557457  c-0.8388977-0.3034668-1.6479378-0.7242241-2.4013176-1.2639351c-1.1270828-0.8070679-2.0125504-1.7956657-2.6456223-2.880825  c-0.6213989-1.065155-0.9945908-2.2147598-1.1182632-3.3712349c-0.1206436-1.1281929-0.0032578-2.2577133,0.3495216-3.3214836  c0.3432198-1.0349426,0.908741-2.0061073,1.6945534-2.8562851c0.2590332-0.2802353,0.5339584-0.5386581,0.8221474-0.7754211  c0.2857971-0.2347946,0.5848541-0.4484634,0.8946609-0.6411247c0.3074837-0.1912117,0.6257935-0.3618774,0.9525299-0.5120735  C39.3097229,39.9395142,39.6428566,39.8103943,39.9822502,39.7013092z"
        ></path>
        <path
            xmlns="http://www.w3.org/2000/svg"
            d="M13.5896139,21.2259426c0.2302284-0.0304089,0.4628057-0.0528431,0.6965466-0.0669632  c0.2330856-0.01408,0.467432-0.0198994,0.7018805-0.017107c0.2339029,0.0027847,0.4680214,0.0141411,0.7012234,0.0344276  c0.2327776,0.0202484,0.4647655,0.0494041,0.6948509,0.087841c0.722229,0.1206818,1.3603764,0.3220196,1.8986206,0.5835094  c0.5393753,0.2620392,0.9814625,0.5859566,1.3079834,0.9518299c0.3289242,0.3685665,0.5421734,0.7814999,0.6189537,1.2186184  c0.0776958,0.4423313,0.0159664,0.9112606-0.2085533,1.3856544c-0.1552086,0.3279648-0.3783302,0.6376705-0.6581955,0.9241943  c-0.2828884,0.2896175-0.6236649,0.5554638-1.0105343,0.7922592c-0.3908482,0.2392311-0.8284187,0.4486141-1.3001232,0.6225872  c-0.4760628,0.1755791-0.9862385,0.3148518-1.517066,0.4121113c-0.2486038,0.0455494-0.5015793,0.0818481-0.7574997,0.1083241  c-0.256712,0.026556-0.5162649,0.0432167-0.7771921,0.0494099c-0.2616043,0.0062084-0.5244503,0.0018959-0.7870398-0.0134983  c-0.2631216-0.0154228-0.5258284-0.0419617-0.7865906-0.0801525c-0.8230686-0.1205788-1.5450373-0.3450813-2.1424932-0.6469173  c-0.5960445-0.3011227-1.0644083-0.6773167-1.3850861-1.101181c-0.3180799-0.4204292-0.4891977-0.8855686-0.4965858-1.3685837  c-0.0072947-0.4768944,0.1450491-0.9692688,0.4712133-1.451807c0.2195101-0.3247623,0.5035505-0.6238937,0.8376131-0.89361  c0.3305035-0.2668438,0.7101412-0.5050354,1.1251745-0.7110615c0.4109459-0.2039948,0.8569994-0.3766556,1.3252125-0.514616  C12.6061125,21.3944378,13.092742,21.2915726,13.5896139,21.2259426z"
        ></path>
        <path
            xmlns="http://www.w3.org/2000/svg"
            d="M10.6080523,39.6257858c0.23594-0.0603867,0.4739752-0.110218,0.7126999-0.1489067  c0.23806-0.0385742,0.4769201-0.0660858,0.7152033-0.0819206c0.2377415-0.0158043,0.4750357-0.0199966,0.7105331-0.0119591  c0.2350931,0.0080223,0.4685326,0.0282326,0.6989908,0.0612717c0.6788654,0.0979652,1.2700319,0.2982826,1.7600508,0.5774612  c0.4912109,0.2798538,0.8833694,0.6404305,1.1607227,1.0589828c0.2793865,0.4216232,0.4435349,0.9039764,0.4744282,1.4241142  c0.0312519,0.5261421-0.0737305,1.0929337-0.3351669,1.6764297c-0.1744385,0.3898926-0.407959,0.7630997-0.6903954,1.1136131  c-0.2852154,0.3539658-0.6202173,0.6846695-0.9943056,0.9857178c-0.3775797,0.3038559-0.7946835,0.5772705-1.2399702,0.8135376  c-0.4490089,0.2382469-0.9261169,0.438427-1.4192934,0.5936623c-0.2541656,0.0800018-0.512414,0.1480217-0.7730665,0.2031212  c-0.2614489,0.0552711-0.5251837,0.0975151-0.7894802,0.1258049c-0.2649622,0.0283623-0.5303373,0.0426826-0.7943659,0.0420456  c-0.2645321-0.0006371-0.5275431-0.0162888-0.787241-0.0478439c-0.768115-0.0933228-1.4305444-0.3164482-1.9679074-0.6390343  c-0.5359054-0.3217125-0.9442825-0.7404594-1.2088966-1.2248878c-0.2624936-0.480545-0.3822608-1.0234261-0.3458772-1.5978241  c0.0359411-0.5674095,0.2241259-1.1634865,0.5758767-1.7590408c0.2295589-0.3893204,0.5144324-0.7539787,0.8418722-1.0890045  c0.3242602-0.3317795,0.6904345-0.6346741,1.086401-0.9040222c0.3924241-0.2669411,0.8144679-0.5011749,1.2546439-0.6982269  C9.6902437,39.9033661,10.1453915,39.7442017,10.6080523,39.6257858z"
        ></path>
        <circle xmlns="http://www.w3.org/2000/svg" cx="26.3953857" cy="70.7583618" r="7.0366049"></circle>
        <ellipse
            xmlns="http://www.w3.org/2000/svg"
            transform="matrix(-0.5179474 -0.8554124 0.8554124 -0.5179474 66.8822403 184.7197571)"
            cx="85.4888916"
            cy="73.5147247"
            rx="7.0366049"
            ry="5.2096682"
        ></ellipse>
        <ellipse
            xmlns="http://www.w3.org/2000/svg"
            transform="matrix(0.9992827 -0.0378701 0.0378701 0.9992827 -3.033412 2.293015)"
            cx="59.0110168"
            cy="81.2181702"
            rx="5.990623"
            ry="7.1316938"
        ></ellipse>
    </g>
    <g
        id="SvgjsG1008"
        featurekey="vRT5cH-0"
        transform="matrix(3.211010073323402,0,0,3.211010073323402,1.6053124015046643,130.93577551137255)"
        fill="#111"
    >
        <path
            d="M19.62 12.219999999999999 c-0.32 0.85334 -0.6333 1.6967 -0.93996 2.53 s-0.59 1.5933 -0.85 2.28 s-0.47666 1.27 -0.65 1.75 s-0.28668 0.79334 -0.34002 0.94 c-0.06666 0.17334 -0.17666 0.31334 -0.33 0.42 s-0.32334 0.16 -0.51 0.16 s-0.35666 -0.05334 -0.51 -0.16 s-0.26334 -0.24666 -0.33 -0.42 l-4.36 -11.88 l-4.38 11.88 c-0.06666 0.17334 -0.17332 0.31334 -0.31998 0.42 s-0.31332 0.16 -0.49998 0.16 s-0.35666 -0.05334 -0.51 -0.16 s-0.26334 -0.24666 -0.33 -0.42 c-0.05334 -0.14666 -0.17 -0.46 -0.35 -0.94 s-0.39666 -1.0633 -0.65 -1.75 s-0.53334 -1.4467 -0.84 -2.28 s-0.62 -1.6767 -0.94 -2.53 c-0.30666 -0.84 -0.61 -1.6633 -0.91 -2.47 s-0.56666 -1.5333 -0.8 -2.18 s-0.42 -1.18 -0.56 -1.6 s-0.21 -0.65666 -0.21 -0.71 c0 -0.24 0.08666 -0.44666 0.26 -0.62 s0.38 -0.26 0.62 -0.26 c0.18666 0 0.35666 0.05334 0.51 0.16 s0.26334 0.24666 0.33 0.42 l4.38 11.88 l4.36 -11.88 c0.06666 -0.17334 0.17666 -0.31334 0.33 -0.42 s0.32334 -0.16 0.51 -0.16 s0.35332 0.05334 0.49998 0.16 s0.25332 0.24666 0.31998 0.42 l4.38 11.88 l4.36 -11.88 c0.06666 -0.17334 0.17666 -0.31334 0.33 -0.42 s0.32334 -0.16 0.51 -0.16 c0.24 0 0.44666 0.08666 0.62 0.26 s0.26 0.38 0.26 0.62 c0 0.05334 -0.07 0.29 -0.21 0.71 s-0.32666 0.95334 -0.56 1.6 s-0.49668 1.3733 -0.79002 2.18 s-0.59334 1.63 -0.9 2.47 z M26.320000000000004 20.3 c-0.70666 0 -1.3733 -0.13666 -2 -0.41 s-1.1733 -0.64334 -1.64 -1.11 s-0.83666 -1.01 -1.11 -1.63 s-0.41 -1.2833 -0.41 -1.99 s0.13666 -1.3733 0.41 -2 s0.64334 -1.1733 1.11 -1.64 s1.0133 -0.83666 1.64 -1.11 s1.2933 -0.41 2 -0.41 s1.37 0.13666 1.99 0.41 s1.1633 0.64334 1.63 1.11 s0.83666 1.0133 1.11 1.64 s0.41 1.2933 0.41 2 s-0.13666 1.37 -0.41 1.99 s-0.64334 1.1633 -1.11 1.63 s-1.01 0.83666 -1.63 1.11 s-1.2833 0.41 -1.99 0.41 z M26.320000000000004 11.78 c-0.46666 0 -0.90326 0.09 -1.3099 0.27 s-0.76332 0.42334 -1.07 0.73 s-0.55 0.66332 -0.73 1.07 s-0.27 0.84332 -0.27 1.31 s0.09 0.90332 0.27 1.31 s0.42334 0.76332 0.73 1.07 s0.66332 0.54666 1.07 0.72 s0.84332 0.26 1.31 0.26 s0.90332 -0.08666 1.31 -0.26 s0.76332 -0.41334 1.07 -0.72 s0.54666 -0.66332 0.72 -1.07 s0.26 -0.84332 0.26 -1.31 s-0.09 -0.90332 -0.27 -1.31 s-0.42 -0.76332 -0.72 -1.07 s-0.65666 -0.55 -1.07 -0.73 s-0.84668 -0.27 -1.3 -0.27 z M35.620000000000005 10.58 c0.21334 -0.18666 0.45006 -0.33002 0.71006 -0.43002 s0.52334 -0.15 0.79 -0.15 c0.65334 0 1.19 0.16 1.61 0.48 s0.74334 0.78 0.97 1.38 c0.05334 0.13334 0.07334 0.27334 0.06 0.42 s-0.05668 0.28 -0.13002 0.4 s-0.17334 0.21666 -0.3 0.29 s-0.27666 0.11 -0.45 0.11 c-0.14666 0 -0.27666 -0.03334 -0.39 -0.1 s-0.21 -0.14666 -0.29 -0.24 c-0.06666 -0.08 -0.12332 -0.16334 -0.16998 -0.25 s-0.09666 -0.17666 -0.15 -0.27 c-0.09334 -0.14666 -0.19668 -0.26666 -0.31002 -0.36 s-0.30334 -0.12668 -0.57 -0.10002 c-0.17334 0.01334 -0.34 0.06668 -0.5 0.16002 s-0.3 0.20668 -0.42 0.34002 s-0.21666 0.28334 -0.29 0.45 s-0.11 0.33666 -0.11 0.51 l0 6.2 c0 0.24 -0.08666 0.44666 -0.26 0.62 s-0.38 0.26 -0.62 0.26 c-0.25334 0 -0.46668 -0.08666 -0.64002 -0.26 s-0.26 -0.38 -0.26 -0.62 l0 -8.54 c0 -0.24 0.08666 -0.44666 0.26 -0.62 s0.38668 -0.26 0.64002 -0.26 c0.18666 0 0.35332 0.05334 0.49998 0.16 s0.25332 0.24666 0.31998 0.42 z M48.58 11.48 l-3.8 3.64 l3.8 3.66 c0.18666 0.16 0.28 0.37334 0.28 0.64 c0 0.24 -0.08666 0.44666 -0.26 0.62 s-0.38 0.26 -0.62 0.26 c-0.25334 0 -0.46 -0.08 -0.62 -0.24 l-3.88 -3.72 l0 3.08 c0 0.24 -0.08666 0.44666 -0.26 0.62 s-0.38 0.26 -0.62 0.26 s-0.44666 -0.08666 -0.62 -0.26 s-0.26 -0.38 -0.26 -0.62 l0 -14.02 c0 -0.24 0.08666 -0.44666 0.26 -0.62 s0.38 -0.26 0.62 -0.26 s0.44666 0.08666 0.62 0.26 s0.26 0.38 0.26 0.62 l0 8.52 l3.88 -3.72 c0.16 -0.16 0.36666 -0.24 0.62 -0.24 c0.24 0 0.44666 0.08666 0.62 0.26 s0.26 0.38 0.26 0.62 s-0.09334 0.45334 -0.28 0.64 z M55.28 13.36 l-2.64 -0.000039062 l0 6.06 c0 0.24 -0.08666 0.44666 -0.26 0.62 s-0.38 0.26 -0.62 0.26 c-0.25334 0 -0.46668 -0.08666 -0.64002 -0.26 s-0.26 -0.38 -0.26 -0.62 l0 -14.02 c0 -0.24 0.08666 -0.44666 0.26 -0.62 s0.38668 -0.26 0.64002 -0.26 l3.52 0 c0.61334 0 1.19 0.11666 1.73 0.35 s1.01 0.55 1.41 0.95 s0.71666 0.86666 0.95 1.4 s0.35 1.1067 0.35 1.72 s-0.11666 1.1867 -0.35 1.72 s-0.55 1 -0.95 1.4 s-0.87 0.71666 -1.41 0.95 s-1.1167 0.35 -1.73 0.35 z M55.28 6.279999999999999 l-2.64 0 l0 5.3 l2.64 0 c0.36 0 0.70334 -0.07 1.03 -0.21 s0.61 -0.33 0.85 -0.57 s0.43 -0.52 0.57 -0.84 s0.21 -0.66 0.21 -1.02 s-0.07 -0.70334 -0.21 -1.03 s-0.33 -0.61 -0.57 -0.85 s-0.52334 -0.43 -0.85 -0.57 s-0.67 -0.21 -1.03 -0.21 z M62.6 20.3 c-0.24 0 -0.44666 -0.08666 -0.62 -0.26 s-0.26 -0.38 -0.26 -0.62 l0 -14.02 c0 -0.24 0.08666 -0.44666 0.26 -0.62 s0.38 -0.26 0.62 -0.26 s0.44666 0.08666 0.62 0.26 s0.26 0.38 0.26 0.62 l0 14.02 c0 0.24 -0.08666 0.44666 -0.26 0.62 s-0.38 0.26 -0.62 0.26 z M75.34 15.620000000000001 l-7.58 -0.000058594 c0.05334 0.41334 0.17668 0.79668 0.37002 1.15 s0.44 0.66 0.74 0.92 s0.64 0.46334 1.02 0.61 s0.78334 0.22 1.21 0.22 c0.25334 0 0.48334 -0.02 0.69 -0.06 s0.4 -0.10334 0.58 -0.19 s0.36 -0.19332 0.54 -0.31998 s0.37666 -0.27 0.59 -0.43 c0.08 -0.06666 0.16334 -0.12332 0.25 -0.16998 s0.20332 -0.07 0.34998 -0.07 c0.25334 0 0.46668 0.08666 0.64002 0.26 s0.26 0.38 0.26 0.62 c0 0.14666 -0.02666 0.26666 -0.08 0.36 s-0.11334 0.18 -0.18 0.26 c-0.21334 0.24 -0.46334 0.45666 -0.75 0.65 s-0.59332 0.35334 -0.91998 0.48 s-0.66 0.22332 -1 0.28998 s-0.66334 0.1 -0.97 0.1 c-0.70666 0 -1.3733 -0.13666 -2 -0.41 s-1.1733 -0.64334 -1.64 -1.11 s-0.83666 -1.01 -1.11 -1.63 s-0.41 -1.2833 -0.41 -1.99 s0.13666 -1.3733 0.41 -2 s0.64334 -1.1733 1.11 -1.64 s1.0133 -0.83666 1.64 -1.11 s1.2933 -0.41 2 -0.41 c0.68 0 1.32 0.11334 1.92 0.34 s1.1333 0.55 1.6 0.97 s0.84 0.92 1.12 1.5 s0.44 1.2167 0.48 1.91 c0.01334 0.26666 -0.07 0.48332 -0.25 0.64998 s-0.39 0.25 -0.63 0.25 z M71.1 11.78 c-0.69334 0 -1.32 0.19 -1.88 0.57 s-0.97334 0.87666 -1.24 1.49 l6.22 0 c-0.25334 -0.62666 -0.66334 -1.1267 -1.23 -1.5 s-1.19 -0.56 -1.87 -0.56 z M85.18 20.3 c-0.12 0 -0.24334 -0.02664 -0.37 -0.07998 s-0.23666 -0.14 -0.33 -0.26 l-2.78 -3.72 l-2.78 3.72 c-0.17334 0.22666 -0.40668 0.34 -0.70002 0.34 c-0.24 0 -0.44666 -0.08666 -0.62 -0.26 s-0.26 -0.38 -0.26 -0.62 c0 -0.21334 0.06666 -0.40668 0.2 -0.58002 l3 -3.82 l-3 -3.56 c-0.13334 -0.17334 -0.2 -0.36668 -0.2 -0.58002 c0 -0.24 0.08666 -0.44666 0.26 -0.62 s0.38 -0.26 0.62 -0.26 c0.29334 0 0.52668 0.10666 0.70002 0.32 l2.78 3.5 l2.8 -3.5 c0.17334 -0.21334 0.4 -0.32 0.68 -0.32 c0.24 0 0.44666 0.08666 0.62 0.26 s0.26 0.38 0.26 0.62 s-0.06666 0.43334 -0.2 0.58 l-3 3.56 l3 3.82 c0.13334 0.17334 0.2 0.36668 0.2 0.58002 c0 0.24 -0.08666 0.44666 -0.26 0.62 s-0.38 0.26 -0.62 0.26 z M89.24000000000001 8.64 c-0.32 0 -0.59666 -0.11666 -0.83 -0.35 s-0.35 -0.51 -0.35 -0.83 c0 -0.33334 0.11666 -0.61 0.35 -0.83 s0.51 -0.33 0.83 -0.33 c0.33334 0 0.61334 0.11 0.84 0.33 s0.34 0.49666 0.34 0.83 c0 0.32 -0.11666 0.59666 -0.35 0.83 s-0.51 0.35 -0.83 0.35 z M89.24000000000001 20.3 c-0.24 0 -0.44666 -0.08666 -0.62 -0.26 s-0.26 -0.38 -0.26 -0.62 l0 -8.54 c0 -0.24 0.08666 -0.44666 0.26 -0.62 s0.38 -0.26 0.62 -0.26 s0.45 0.08666 0.63 0.26 s0.27 0.38 0.27 0.62 l0 8.54 c0 0.24 -0.09 0.44666 -0.27 0.62 s-0.39 0.26 -0.63 0.26 z M98.4 11.78 l-1.62 0 l0 7.64 c0 0.24 -0.08666 0.44666 -0.26 0.62 s-0.38668 0.26 -0.64002 0.26 c-0.24 0 -0.44666 -0.08666 -0.62 -0.26 s-0.26 -0.38 -0.26 -0.62 l0 -7.64 l-1.64 0 c-0.24 0 -0.44666 -0.08666 -0.62 -0.26 s-0.26 -0.38 -0.26 -0.62 c0 -0.25334 0.08666 -0.46668 0.26 -0.64002 s0.38 -0.26 0.62 -0.26 l1.64 0 l0 -2.94 c0 -0.25334 0.08666 -0.46334 0.26 -0.63 s0.38 -0.25 0.62 -0.25 c0.25334 0 0.46668 0.08334 0.64002 0.25 s0.26 0.37666 0.26 0.63 l0 2.94 l1.62 0 c0.25334 0 0.46668 0.08666 0.64002 0.26 s0.26 0.38668 0.26 0.64002 c0 0.24 -0.08666 0.44666 -0.26 0.62 s-0.38668 0.26 -0.64002 0.26 z M108.42000000000002 11.22 l-3.34 8.28 l-1.74 4.24 c-0.06666 0.17334 -0.17332 0.31 -0.31998 0.41 s-0.31332 0.15 -0.49998 0.15 c-0.24 0 -0.44666 -0.08666 -0.62 -0.26 s-0.26 -0.38 -0.26 -0.62 c0 -0.12 0.02 -0.23334 0.06 -0.34 l1.6 -3.92 l-3.2 -7.94 c-0.04 -0.09334 -0.06 -0.20668 -0.06 -0.34002 c0 -0.24 0.08666 -0.44666 0.26 -0.62 s0.38 -0.26 0.62 -0.26 c0.18666 0 0.35666 0.05 0.51 0.15 s0.26334 0.23666 0.33 0.41 l2.5 6.4 l2.52 -6.4 c0.06666 -0.17334 0.17332 -0.31 0.31998 -0.41 s0.31332 -0.15 0.49998 -0.15 c0.25334 0 0.46668 0.08666 0.64002 0.26 s0.26 0.38 0.26 0.62 c0 0.13334 -0.02666 0.24668 -0.08 0.34002 z"
        ></path>
    </g>
    <g
        id="SvgjsG1009"
        featurekey="dDj50M-0"
        transform="matrix(0.5707064587392536,0,0,0.5707064587392536,34.61191997815961,215.9638431743432)"
        fill="#111"
    >
        <path
            d="M8.14 18.46 c1.78 0 3.44 -0.82 4.54 -2.26 l1.4 1.04 c-1.42 1.9 -3.6 2.98 -5.94 2.98 c-4.12 0 -7.46 -3.34 -7.46 -7.46 c0 -4.1 3.34 -7.44 7.46 -7.44 c2.36 0 4.54 1.1 5.96 3 l-1.42 1.04 c-1.08 -1.46 -2.74 -2.28 -4.54 -2.28 c-3.16 0 -5.7 2.54 -5.7 5.68 c0 3.16 2.54 5.7 5.7 5.7 z M29.439999999999998 5.32 c4.1 0 7.46 3.34 7.46 7.46 c0 4.1 -3.36 7.42 -7.46 7.42 s-7.44 -3.32 -7.44 -7.42 c0 -4.12 3.34 -7.46 7.44 -7.46 z M29.439999999999998 18.44 c3.12 0 5.64 -2.56 5.64 -5.66 c0 -3.12 -2.52 -5.7 -5.64 -5.7 s-5.64 2.58 -5.64 5.7 c0 3.1 2.52 5.66 5.64 5.66 z M55.08 20 l-7.62 -11.26 l0 11.26 l-1.8 0 l0 -14.24 l1.96 0 l7.6 11.26 l0 -11.26 l1.8 0 l0 14.24 l-1.94 0 z M76.28 20 l-7.62 -11.26 l0 11.26 l-1.8 0 l0 -14.24 l1.96 0 l7.6 11.26 l0 -11.26 l1.8 0 l0 14.24 l-1.94 0 z M88.3 20 l0 -14.24 l9 0 l0 1.72 l-7.2 0 l0 3.34 l6.28 0 l0 1.78 l-6.28 0 l0 5.64 l7.02 0 l0 1.76 l-8.82 0 z M112.56 18.46 c1.78 0 3.44 -0.82 4.54 -2.26 l1.4 1.04 c-1.42 1.9 -3.6 2.98 -5.94 2.98 c-4.12 0 -7.46 -3.34 -7.46 -7.46 c0 -4.1 3.34 -7.44 7.46 -7.44 c2.36 0 4.54 1.1 5.96 3 l-1.42 1.04 c-1.08 -1.46 -2.74 -2.28 -4.54 -2.28 c-3.16 0 -5.7 2.54 -5.7 5.68 c0 3.16 2.54 5.7 5.7 5.7 z M130.04000000000002 20 l0 -12.48 l-3.76 0 l0 -1.76 l9.32 0 l0 1.76 l-3.76 0 l0 12.48 l-1.8 0 z M143.18 17.72 c0.62 0 1.12 0.52 1.12 1.14 s-0.5 1.14 -1.12 1.14 c-0.64 0 -1.14 -0.52 -1.14 -1.14 s0.5 -1.14 1.14 -1.14 z M170.70000000000005 18.46 c1.78 0 3.44 -0.82 4.54 -2.26 l1.4 1.04 c-1.42 1.9 -3.6 2.98 -5.94 2.98 c-4.12 0 -7.46 -3.34 -7.46 -7.46 c0 -4.1 3.34 -7.44 7.46 -7.44 c2.36 0 4.54 1.1 5.96 3 l-1.42 1.04 c-1.08 -1.46 -2.74 -2.28 -4.54 -2.28 c-3.16 0 -5.7 2.54 -5.7 5.68 c0 3.16 2.54 5.7 5.7 5.7 z M192.00000000000003 5.32 c4.1 0 7.46 3.34 7.46 7.46 c0 4.1 -3.36 7.42 -7.46 7.42 s-7.44 -3.32 -7.44 -7.42 c0 -4.12 3.34 -7.46 7.44 -7.46 z M192.00000000000003 18.44 c3.12 0 5.64 -2.56 5.64 -5.66 c0 -3.12 -2.52 -5.7 -5.64 -5.7 s-5.64 2.58 -5.64 5.7 c0 3.1 2.52 5.66 5.64 5.66 z M208.12000000000003 20 l0 -14.24 l1.8 0 l0 12.5 l7.8 0 l0 1.74 l-9.6 0 z M226.22000000000003 20 l0 -14.24 l1.8 0 l0 12.5 l7.8 0 l0 1.74 l-9.6 0 z M254.44000000000003 20 l-1.58 -4.14 l-5.82 0 l-1.58 4.14 l-1.92 0 l5.48 -14.24 l1.86 0 l5.5 14.24 l-1.94 0 z M252.16000000000003 14.1 l-2.2 -5.76 l-2.22 5.76 l4.42 0 z M264.56 20 l0 -14.24 l5.12 0 c0.9 0 1.76 0.36 2.38 1 c0.64 0.62 1 1.48 1 2.38 c0 0.7 -0.2 1.36 -0.6 1.92 l-0.02 0.02 l0.02 0.02 c0.56 0.22 1.08 0.56 1.5 1 c0.88 0.86 1.36 2.02 1.36 3.26 c0 1.22 -0.48 2.38 -1.36 3.26 c-0.86 0.86 -2.02 1.38 -3.24 1.38 l-6.16 0 z M266.34 18.26 l4.38 0 c1.56 -0.04 2.82 -1.36 2.82 -2.9 c0 -1.56 -1.26 -2.84 -2.82 -2.86 l-4.38 0 l0 5.76 z M266.34 10.76 l3.34 0 c0.88 -0.02 1.6 -0.74 1.6 -1.62 s-0.7 -1.6 -1.6 -1.64 l-3.34 0 l0 3.26 z M290.56 5.32 c4.1 0 7.46 3.34 7.46 7.46 c0 4.1 -3.36 7.42 -7.46 7.42 s-7.44 -3.32 -7.44 -7.42 c0 -4.12 3.34 -7.46 7.44 -7.46 z M290.56 18.44 c3.12 0 5.64 -2.56 5.64 -5.66 c0 -3.12 -2.52 -5.7 -5.64 -5.7 s-5.64 2.58 -5.64 5.7 c0 3.1 2.52 5.66 5.64 5.66 z M312.24 12.42 l5.5 7.58 l-2.06 0 l-5.44 -7.48 l-2.04 0 l0 7.48 l-1.72 0 l0 -14.24 l4.94 0 c0.9 0 1.74 0.36 2.38 1 s1 1.48 1 2.38 c0 1.58 -1.1 2.9 -2.56 3.28 z M308.2 7.48 l0 3.32 l3.22 0 c0.92 0 1.66 -0.74 1.66 -1.66 s-0.74 -1.66 -1.66 -1.66 l-3.22 0 z M335.48 20 l-1.58 -4.14 l-5.82 0 l-1.58 4.14 l-1.92 0 l5.48 -14.24 l1.86 0 l5.5 14.24 l-1.94 0 z M333.2 14.1 l-2.2 -5.76 l-2.22 5.76 l4.42 0 z M348.6 20 l0 -12.48 l-3.76 0 l0 -1.76 l9.32 0 l0 1.76 l-3.76 0 l0 12.48 l-1.8 0 z M362.44 20 l0 -14.24 l9 0 l0 1.72 l-7.2 0 l0 3.34 l6.28 0 l0 1.78 l-6.28 0 l0 5.64 l7.02 0 l0 1.76 l-8.82 0 z M380.38 17.72 c0.62 0 1.12 0.52 1.12 1.14 s-0.5 1.14 -1.12 1.14 c-0.64 0 -1.14 -0.52 -1.14 -1.14 s0.5 -1.14 1.14 -1.14 z M407.98 10.84 l5.92 0 l0 6.3 c-1.42 1.9 -3.66 3.08 -6.02 3.08 c-4.1 0 -7.44 -3.34 -7.44 -7.46 c0 -4.1 3.34 -7.44 7.44 -7.44 c2.02 0 3.9 0.8 5.28 2.2 l-1.32 1.16 c-1.04 -1.04 -2.46 -1.6 -3.96 -1.6 c-3.14 0 -5.68 2.54 -5.68 5.68 c0 3.16 2.54 5.7 5.68 5.7 c1.66 0 3.18 -0.7 4.28 -1.92 l0 -3.94 l-4.18 0 l0 -1.76 z M428.64 12.42 l5.5 7.58 l-2.06 0 l-5.44 -7.48 l-2.04 0 l0 7.48 l-1.72 0 l0 -14.24 l4.94 0 c0.9 0 1.74 0.36 2.38 1 s1 1.48 1 2.38 c0 1.58 -1.1 2.9 -2.56 3.28 z M424.59999999999997 7.48 l0 3.32 l3.22 0 c0.92 0 1.66 -0.74 1.66 -1.66 s-0.74 -1.66 -1.66 -1.66 l-3.22 0 z M447.71999999999997 5.32 c4.1 0 7.46 3.34 7.46 7.46 c0 4.1 -3.36 7.42 -7.46 7.42 s-7.44 -3.32 -7.44 -7.42 c0 -4.12 3.34 -7.46 7.44 -7.46 z M447.71999999999997 18.44 c3.12 0 5.64 -2.56 5.64 -5.66 c0 -3.12 -2.52 -5.7 -5.64 -5.7 s-5.64 2.58 -5.64 5.7 c0 3.1 2.52 5.66 5.64 5.66 z M476.41999999999996 20 l-4.2 -7.34 l-4.18 7.34 l-1.92 0 l-3.98 -14.24 l1.88 0 l3.3 11.9 l3.9 -6.84 l2.02 0 l3.88 6.84 l3.32 -11.9 l1.88 0 l-3.98 14.24 l-1.92 0 z M490.17999999999995 17.72 c0.62 0 1.12 0.52 1.12 1.14 s-0.5 1.14 -1.12 1.14 c-0.64 0 -1.14 -0.52 -1.14 -1.14 s0.5 -1.14 1.14 -1.14 z"
        ></path>
    </g>
</svg>
